<svg aria-labelledby="logoTitle" xmlns="http://www.w3.org/2000/svg" class="logo_svg" viewBox="0 0 377.04 125.901">
							<defs><title id="logoTitle">Valentino's</title><style>.a{fill:#fff}.b{fill:#d90022;fill-rule:evenodd}.c{fill:#1a1818}.d{filter:url(#y)}.e{filter:url(#w)}.f{filter:url(#u)}.g{filter:url(#s)}.h{filter:url(#q)}.i{filter:url(#o)}.j{filter:url(#m)}.k{filter:url(#k)}.l{filter:url(#i)}.m{filter:url(#g)}.n{filter:url(#e)}.o{filter:url(#c)}.p{filter:url(#a)}</style><filter id="a" width="377.04" height="123.163" x="0" y="0" filterUnits="userSpaceOnUse"><feOffset dy="3"></feOffset><feGaussianBlur result="b" stdDeviation="3"></feGaussianBlur><feFlood flood-opacity=".161"></feFlood><feComposite in2="b" operator="in"></feComposite><feComposite in="SourceGraphic"></feComposite></filter><filter id="c" width="61.597" height="54.691" x="230.369" y="45.071" filterUnits="userSpaceOnUse"><feOffset dx="1" dy="1"></feOffset><feGaussianBlur result="d" stdDeviation="1"></feGaussianBlur><feFlood flood-opacity=".302"></feFlood><feComposite in2="d" operator="in"></feComposite><feComposite in="SourceGraphic"></feComposite></filter><filter id="e" width="30.338" height="64.712" x="205.122" y="34.868" filterUnits="userSpaceOnUse"><feOffset dx="1" dy="1"></feOffset><feGaussianBlur result="f" stdDeviation="1"></feGaussianBlur><feFlood flood-opacity=".302"></feFlood><feComposite in2="f" operator="in"></feComposite><feComposite in="SourceGraphic"></feComposite></filter><filter id="g" width="44.003" height="53.837" x="169.13" y="45.649" filterUnits="userSpaceOnUse"><feOffset dx="1" dy="1"></feOffset><feGaussianBlur result="h" stdDeviation="1"></feGaussianBlur><feFlood flood-opacity=".302"></feFlood><feComposite in2="h" operator="in"></feComposite><feComposite in="SourceGraphic"></feComposite></filter><filter id="i" width="37.349" height="54.03" x="139.323" y="45.481" filterUnits="userSpaceOnUse"><feOffset dx="1" dy="1"></feOffset><feGaussianBlur result="j" stdDeviation="1"></feGaussianBlur><feFlood flood-opacity=".302"></feFlood><feComposite in2="j" operator="in"></feComposite><feComposite in="SourceGraphic"></feComposite></filter><filter id="k" width="26.006" height="66.917" x="119.818" y="32.113" filterUnits="userSpaceOnUse"><feOffset dx="1" dy="1"></feOffset><feGaussianBlur result="l" stdDeviation="1"></feGaussianBlur><feFlood flood-opacity=".302"></feFlood><feComposite in2="l" operator="in"></feComposite><feComposite in="SourceGraphic"></feComposite></filter><filter id="m" width="42.409" height="53.956" x="85.573" y="45.711" filterUnits="userSpaceOnUse"><feOffset dx="1" dy="1"></feOffset><feGaussianBlur result="n" stdDeviation="1"></feGaussianBlur><feFlood flood-opacity=".302"></feFlood><feComposite in2="n" operator="in"></feComposite><feComposite in="SourceGraphic"></feComposite></filter><filter id="o" width="116.258" height="101.51" x="11.149" y="9.372" filterUnits="userSpaceOnUse"><feOffset dx="1" dy="1"></feOffset><feGaussianBlur result="p" stdDeviation="1"></feGaussianBlur><feFlood flood-opacity=".302"></feFlood><feComposite in2="p" operator="in"></feComposite><feComposite in="SourceGraphic"></feComposite></filter><filter id="q" width="20.98" height="21.442" x="230.923" y="29.536" filterUnits="userSpaceOnUse"><feOffset dx="1" dy="1"></feOffset><feGaussianBlur result="r" stdDeviation="1"></feGaussianBlur><feFlood flood-opacity=".302"></feFlood><feComposite in2="r" operator="in"></feComposite><feComposite in="SourceGraphic"></feComposite></filter><filter id="s" width="41.833" height="54.203" x="283.969" y="45.309" filterUnits="userSpaceOnUse"><feOffset dx="1" dy="1"></feOffset><feGaussianBlur result="t" stdDeviation="1"></feGaussianBlur><feFlood flood-opacity=".302"></feFlood><feComposite in2="t" operator="in"></feComposite><feComposite in="SourceGraphic"></feComposite></filter><filter id="u" width="18.405" height="23.848" x="315.736" y="34.868" filterUnits="userSpaceOnUse"><feOffset dx="1" dy="1"></feOffset><feGaussianBlur result="v" stdDeviation="1"></feGaussianBlur><feFlood flood-opacity=".302"></feFlood><feComposite in2="v" operator="in"></feComposite><feComposite in="SourceGraphic"></feComposite></filter><filter id="w" width="48.656" height="64.735" x="318.493" y="43.873" filterUnits="userSpaceOnUse"><feOffset dx="1" dy="1"></feOffset><feGaussianBlur result="x" stdDeviation="1"></feGaussianBlur><feFlood flood-opacity=".302"></feFlood><feComposite in2="x" operator="in"></feComposite><feComposite in="SourceGraphic"></feComposite></filter><filter id="y" width="13.688" height="13.689" x="351.867" y="43.502" filterUnits="userSpaceOnUse"><feOffset dx="1" dy="1"></feOffset><feGaussianBlur result="z" stdDeviation="1"></feGaussianBlur><feFlood flood-opacity=".302"></feFlood><feComposite in2="z" operator="in"></feComposite><feComposite in="SourceGraphic"></feComposite></filter></defs><g class="p"><path d="M359.106 63.128a6.291 6.291 0 0 0 .879-2.058c.422-1.812.073-3.846-1.091-6.3a5.9 5.9 0 0 0 2.885-1.58 5.961 5.961 0 0 0 1.353-1.991 6.044 6.044 0 0 0 .46-2.333 6.146 6.146 0 0 0-8.433-5.659 5.885 5.885 0 0 0-1.974 1.314c-.034.033-.058.074-.091.108-.058-.124-.111-.232-.156-.323a7.183 7.183 0 0 0-6.31-4.023 6.729 6.729 0 0 0-3.815 1.2c-.547.373-1.692.423-3.671.479-1.165.033-2.485.071-4 .218-.161-5.295-3.7-10.843-11.248-10.843a11.264 11.264 0 0 0-11.35 9.742l-.043.329v.332a12.678 12.678 0 0 0 .172 1.957 18.1 18.1 0 0 0-8.362-1.986c-.445 0-.9.015-1.352.044a20.162 20.162 0 0 0-14.791 7.867 14.466 14.466 0 0 0-12.915-7.6 17.41 17.41 0 0 0-5.265.747l-.527-1.669-4.889 1.512c-1.675.517-7.817 1.556-12.035 2.192h-.137q-.122-.2-.257-.39a13.4 13.4 0 0 0 1.063-5.39c0-5.1-2.268-9.124-6.386-11.325a14.7 14.7 0 0 0-6.583-1.654h-.086a12.089 12.089 0 0 0-11.421 7.97 6.456 6.456 0 0 0-5.294-2.672c-1.872 0-4.868.593-9.289 5.678a19.227 19.227 0 0 1-2.475 1.286c-.5.229-.893.409-1.253.608-1.587.873-2.687 2.207-3.688 6.239q-.247.092-.49.206a14.61 14.61 0 0 0-9.267-3.249 23.321 23.321 0 0 0-7.1 1.239 7.127 7.127 0 0 0-4.091-1.295 6.839 6.839 0 0 0-1.657.2l-12.34 2.715-.165.037-.162.047a7.609 7.609 0 0 0-1.547.638 19.568 19.568 0 0 0-12.193-3.8 18.257 18.257 0 0 0-12.587 4.73l.03-8.211a7.746 7.746 0 0 0-1.053-6.568 7.989 7.989 0 0 0-6.56-3.234 12.251 12.251 0 0 0-5.529 1.787c-.841.426-1.712.867-2.6 1.223-.105.042-.214.081-.323.116q.056-.713.056-1.422c0-9.8-7.439-24.3-23.409-24.3-11.592 0-21.618 9.427-27.5 25.864-.81 2.263-1.773 5.878-2.739 9.915-.073-.132-.147-.253-.218-.362a6.8 6.8 0 0 0-5.657-2.96h-2.884c-4.8 0-8.4-1.6-12.571-3.446-4.755-2.108-10.144-4.5-17.642-4.5-17.232 0-27.529 14.237-27.529 28 0 12.36 11.223 23.617 23.546 23.617a21.35 21.35 0 0 0 15.803-6.644 19.973 19.973 0 0 0 4.731-8.559c7.232 13.026 6.383 28.423 6.371 28.594a3.7 3.7 0 0 1-1.039 2.4 9.33 9.33 0 0 0-1.466 2.408 8.127 8.127 0 0 0 7.816 10.82c3.8 0 6.249-2.09 8.037-3.616a17.841 17.841 0 0 1 1.6-1.269c1.828-1.214 7.186-4.231 9.342-5.43a45.542 45.542 0 0 0 6.774-3.511 17.184 17.184 0 0 0 17.713.434 16.668 16.668 0 0 0 7.35 1.52 14.591 14.591 0 0 0 6.091-1.343 8.138 8.138 0 0 0 4.879 1.438 14.011 14.011 0 0 0 4.064-.568 8.22 8.22 0 0 1 2.665-.323 15.915 15.915 0 0 1 3.679.392 16.719 16.719 0 0 0 3.6.43 6.785 6.785 0 0 0 6.173-3.689 20.011 20.011 0 0 0 22.609 1.384 7.736 7.736 0 0 0 5.414 2.03 10.683 10.683 0 0 0 1.381-.116 43.64 43.64 0 0 1 5.692-.362c1.117 0 5 .244 7.19.4l1.335.093 1.212-.567a8.107 8.107 0 0 0 1.8-1.174 12.93 12.93 0 0 0 7.828 2.525 12.745 12.745 0 0 0 10.03-4.217 14.171 14.171 0 0 0 10.476 4.31 16.422 16.422 0 0 0 8.54-2.137 7.481 7.481 0 0 0 4.548 1.4 16.008 16.008 0 0 0 3.85-.528 14.379 14.379 0 0 1 3.755-.473 23.168 23.168 0 0 1 4.113.4 31.189 31.189 0 0 0 5.406.512 39.708 39.708 0 0 0 4.667-.3 49.805 49.805 0 0 1 6.175-.347 14.2 14.2 0 0 1 1.637.423 10.148 10.148 0 0 0 3 .579 7.429 7.429 0 0 0 4.776-1.88 12.651 12.651 0 0 0 7.583 2.522 12.984 12.984 0 0 0 10.863-5.491 21.243 21.243 0 0 0 14.268 5.242 18.442 18.442 0 0 0 12.5-4.643 21.936 21.936 0 0 0 9.136 9.482 34.4 34.4 0 0 0 16 4.2c10.265 0 25.538-6.836 25.538-25.671a26.94 26.94 0 0 0-8.949-20.093zM37.299 53.992h.048zm-.773-18.351a25.506 25.506 0 0 0-3.121.187 25.5 25.5 0 0 1 3.121-.188c.79 0 1.552.032 2.291.09q-1.106-.087-2.289-.089zm2.335 15.2a6.453 6.453 0 0 1 .184.867 6.417 6.417 0 0 0-.182-.864zm1.026-.068zm8.723 9.378a17.808 17.808 0 0 1 .034 1.81 17.808 17.808 0 0 0-.031-1.807zm21.424-8.08c-.089-.342-.16-.653-.215-.942.055.288.126.6.215.942s.186.711.288 1.092q-.149-.566-.285-1.089zm5.493 14.379c-.36-.617-.7-1.246-1.024-1.882.322.636.664 1.265 1.024 1.882zm10.712 21.637l.048.017zm2.11 1.426a2.167 2.167 0 0 1 .464 1.146 2.167 2.167 0 0 0-.46-1.143zm15.288-53.87a4.783 4.783 0 0 0 .22.5 4.783 4.783 0 0 1-.216-.496zm20.178 2.271a2.779 2.779 0 0 0-1.072.67 2.779 2.779 0 0 1 1.072-.67 7.861 7.861 0 0 1 1.283-.374 7.861 7.861 0 0 0-1.279.377zm61.919 9.258h.049-.049zm3.64 46.667l.072-.036zm10.116-46.284a9.476 9.476 0 0 1 2.453 1.033 9.476 9.476 0 0 0-2.45-1.029zm8.121 3.567a2.317 2.317 0 0 1 .311-.707 2.317 2.317 0 0 0-.308.711zm1.171-1.243a1.2 1.2 0 0 0-.5.178 1.2 1.2 0 0 1 .5-.178c.5-.068.9-.127 1.208-.173-.306.051-.702.109-1.206.177zm4.12-6.489l-.013.011.013-.011c.152-.083.4-.2.677-.329-.28.136-.523.251-.675.336zm13-1.549a10.25 10.25 0 0 0-.129-1.494 10.25 10.25 0 0 1 .129 1.494v.779c.006-.314.005-.581.005-.774zm14.253-10.681zm.1 15.342zm.247 0h-.108.108zm4.9.821a2.351 2.351 0 0 1-.394.323 2.351 2.351 0 0 0 .394-.323zm1.269-.715c.021 0 .042-.008.063-.008h.017a.642.642 0 0 0-.073.008zm5.615 3.315h.046a.309.309 0 0 0-.039 0zm13.8-2.42c-.367.114-.853.237-1.421.367s-1.221.264-1.92.4c.7-.137 1.351-.272 1.92-.4s1.054-.253 1.421-.367l.55 1.737zm2.538 42.936a3.412 3.412 0 0 1 .262.279 3.412 3.412 0 0 0-.254-.279zm19.235-2.4a8.789 8.789 0 0 0 .093-1 9.071 9.071 0 0 1-.085 1.005zm15.427-41.174a16.586 16.586 0 0 0-1.751.207 16.586 16.586 0 0 1 1.751-.207c.346-.022.684-.033 1.017-.033.074 0 .143.009.216.01-.396-.001-.804 0-1.226.027zm34.862 46.2zm19.451-43.829l.748 1.634zm.776-.918a.5.5 0 0 1-.161.222 1.162 1.162 0 0 1-.709.165 1.162 1.162 0 0 0 .709-.165.5.5 0 0 0 .16-.222zm-.887-1.114a1.73 1.73 0 0 1 .427.048 1.73 1.73 0 0 0-.427-.048zm-10.9-1.79c.013 0 .026-.006.039-.006.027 0 .051.014.079.015-.038-.001-.076-.009-.116-.008zm3.45 4.61c.365.665.79 1.393 1.284 2.164-.492-.77-.917-1.499-1.282-2.163zm2.9 11.06c-.022 0-.038-.008-.058-.008a2.186 2.186 0 0 0 .4-.018 2.237 2.237 0 0 1-.336.026z" class="a"></path></g><g class="o"><path d="M234.301 51.012s9.286-1.464 10.94-3.213 2.756.1 2.937.922-.1 11.758 0 16.995-.551 24.808 3.032 24.808c2.757 0 2.386-3.584 2.386-3.584s.18-26.03-.552-31.148c-.1-.732-1.834-2.11-1.834-2.11a1.879 1.879 0 0 1-.466-2.3c.733-1.284 1.75-.921 1.75-.921s10.56-1.568 13.506-2.481l.552 1.75s.189 1.292 1.473.369a10.025 10.025 0 0 1 7.166-2.48c4.315 0 10.018 2.851 10.018 12.128s-2.025 11.12-2.025 18.743 2.852 4.222 2.852 4.222a6.07 6.07 0 0 1 1.93 4.78 8.1 8.1 0 0 1-8.269 8.269c-5.978 0-9.648-6.624-9.648-13.878s2.757-14.143 2.757-19.932c0-4.5-1.654-3.953-1.654-3.953s-3.282-.285-4.135 9.647c-.646 7.537.6 6.8.457 13.963-.1 4.686-.646 8.184.732 9.286a2.46 2.46 0 0 1 1.1 2.387c0 1.007-1.275 1.834-2.015 1.834s-3.041-1.008-4.6-1.008c-5.97 0-7.167.646-10.931.646s-5.5-.921-9.553-.921-5.341 1.007-7.632 1.007-2.2-1.739-2.2-2.385 2.671-2.292 2.671-3.765 1.489-17.7-.741-33.172c-.12-.87-2.025-.827-1.93-2.756.06-1.284 1.016-1.654 1.93-1.75z" class="b"></path></g><g class="n"><path d="M210.785 50.004s1.007-5.7 1.834-6.159 3.953-1.653 5.056-2.937 3.678-4.041 5.514-4.041 2.48 3.859 2.48 5.418.086 7.8.086 7.8l3.4-.181a1.938 1.938 0 0 1 1.748 2.119v5.694s-.094 1.93-1.2 1.93h-3.765l-.094 23.335s.818 3.764 3.213-1.654a8.526 8.526 0 0 1 2.394 5.608c0 3.307-2.3 8.64-10.017 8.64s-9.923-7.175-9.923-10.94-.37-24.807-.37-24.807l-2.2-.457a2.058 2.058 0 0 1-1.654-2.3c0-2.11-.827-6.426 1.2-6.7a21.06 21.06 0 0 0 2.3-.371z" class="b"></path></g><g class="m"><path d="M172.469 50.467l12.49-2.757s2.016-.638 2.757 2.394a22.132 22.132 0 0 1 8.915-2.394c4.41 0 9.647 3.032 9.647 10.845s-2.2 8.812-2.2 20.3c0 8.83 2.757 4.506 2.757 4.506s.371-.732.922-.732 1.378 2.851 1.378 4.685-1.008 8.175-8.269 8.175-9.648-8.278-9.648-13.878 3.118-17.83 3.118-21.5a2.519 2.519 0 0 0-2.386-2.48c-.551 0-3.764 1.283-3.764 3.583s-.439 18.926.25 25.342c.275 2.568.146 3.343 1.473 5.169 1.343 1.842-.9 2.893-.9 2.893s-5.858-.413-7.58-.413a58.157 58.157 0 0 0-7.1.482c-.483 0-2.413-.069-2.413-2.067s3.1-3.859 3.1-10.818c0-4.962-.275-24.188-.275-24.188a3.7 3.7 0 0 0-1.861-3.032c-1.93-1.241-2.549-3.5-.413-4.117z" class="b"></path></g><g class="l"><path d="M158.279 57.756c2.963 0 3.17 5.237 3.17 5.237-.827 1.1-5.445.551-5.445.551 0-.757-.688-5.788 2.275-5.788zm-2.894 15.78s2.826-1.447 8.407-.62 8.131-1.654 8.131-1.654a2.928 2.928 0 0 0 .552-1.034c.138-.551 2.687-22.74-15.229-22.74-16.4 0-15.919 23.361-15.919 23.361s.069 24.67 17.228 24.67c13.506 0 13.92-14.471 13.92-14.471s.482-5.858-3.239-5.858c-1.241 0-2.344 2.136-2.344 2.136s-2.136 4.962-6.064 4.962-5.443-4.41-5.443-8.752z" class="b"></path></g><g class="k"><path d="M122.85 41.574s-2.558-2.094.362-3.239c2.231-.879 4.781-.457 7.537-1.559s4.952-2.662 6.246-2.662 3.583.818 2.48 3.944l-.181 50.168a6.05 6.05 0 0 0 1.611 2.6c1.31 1.309 1.379 4.135-.9 4.135s-3.307-.827-7.3-.827-3.928.9-6.753.9-2.55-1.861-2.55-2.344c0-1.653 2.481-2.2 2.481-3.583v-44.93s.413-1.224-3.033-2.6z" class="b"></path></g><g class="j"><path d="M104.938 61.032c-.491 6.477-7.081 6.339-7.081 6.339s-8.45-1.008-5.048-10.474c4.53-12.611 20.484-10.1 24.713-5.057s3.032 21.776 3.032 29.132c0 5.788 2.662 2.2 2.662 2.2 2.843 6.529-2.757 11.758-8.269 11.758s-7.167-2.576-7.167-2.576-4.135 3.307-8.726 3.307c-3.032 0-11.483-2.024-11.483-11.026 0-7.993 6.615-11.852 9-13.231s10.294-4.135 10.294-10.655-4.411-4.41-4.411-4.41 2.663 2.291 2.481 4.686zm1.93 14.014s-5.237 2.205-5.237 5.858a1.3 1.3 0 0 0 1.653 1.447s3.584.069 3.584-7.3z" class="b"></path></g><g class="i"><path d="M37.957 51.341s9.045-1.473 9.785 9.372c.68 9.9-6.754 16.951-16.125 16.951s-18.468-8.682-18.468-18.606 7.029-23.015 22.465-23.015c12.68 0 18.33 7.993 30.321 7.993h2.894s2.343 0 1.241 2.482-1.543 3.317-.827 6.064a58.44 58.44 0 0 0 5.512 14.471s4.824-25.359 7.581-33.078 9.785-22.6 22.74-22.6 18.33 12.4 18.33 19.3a15.833 15.833 0 0 1-16.263 15.436c-8.821 0-8.2-10.06-4.2-10.13a3.965 3.965 0 0 0 1.93 2.275c1.378.551 2.136-1.792 1.722-2.757s-4.065-2.757-6.546.413-14.816 20.26-14.54 52.923c0 0 4.333 1.448 1.792 4.686-.69.879-6.616 3.532-6.616 3.532s-7.443 4.135-9.923 5.788-4.049 4.048-6.805 4.048a3.029 3.029 0 0 1-3.032-3.858c.466-1.2 2.576-2.481 2.852-6.341s.207-22.956-10.475-36.936c-7.442-9.742-9.733-9.372-9.733-9.372s-8.916-2.585-8.916 2.566a1.519 1.519 0 0 0 1.74 1.568s2.585.413 1.568-3.17z" class="b"></path></g><g class="h"><path d="M240.001 31.539s7.9-.189 7.9 7.9c0 7.717-7.623 7.537-7.623 7.537s-7.357.457-7.357-7.813c0-7.718 7.081-7.624 7.081-7.624z" class="b"></path></g><g class="g"><path d="M285.969 71.874s.93-23.464 17.365-24.533c15.85-1.032 18.468 22.052 18.468 24.4s-1.447 23.774-16.882 23.774-18.951-17.572-18.951-23.636zm14.058-.552c0 7.994 2.757 13.231 4.2 13.231s3.859-3.1 3.859-14.471-3.309-12.266-4.2-12.266c-2.067 0-3.859 5.512-3.859 13.506z" class="b"></path></g><g class="f"><path d="M320.839 49.342a28.106 28.106 0 0 0-1.791-2.894 8.194 8.194 0 0 1-1.31-4.272 6.181 6.181 0 0 1 6.271-5.307c5.582 0 6.134 4.617 6.134 6.133s-.552 5.651-3.1 8.2-4.48 3.514-6.065 3.514a1.451 1.451 0 0 1-1.516-2.136c.413-.965 1.378-1.516 1.378-3.239z" class="b"></path></g><g class="e"><path d="M327.178 58.786s.757-10.26 8.613-11.026c4.514-.439 7.512.206 10.13-1.585a1.806 1.806 0 0 1 2.619.9 43.034 43.034 0 0 0 3.79 6.822c1.481 2.145 4.066 6.339 2.343 7.3s-2.757.206-3.239-.551-2.894-5.927-7.65-5.927a2.524 2.524 0 0 0-2.688 2.688s.069 1.515 2.55 2.687 19.5 7.1 19.5 23.844-14.058 20.673-20.467 20.673-22.19-3.376-22.19-18.261c0-10.888 9.717-12.473 9.717-12.473s12.765-2.489 14.127 11.37c.688 7.029-5.1 8.544-5.1 8.544s-4.136.483-4.136-1.722c0-.758 1.931-3.032-.688-3.032-1.792 0-1.517 1.93-1.517 1.93s.491 4.893 8.752 5.443c5.168.344 8.131-6.822 8.131-6.822s2.318-6.529-2.343-10.75c-8.752-7.924-9.1-4.961-15.781-10.887-4.669-4.144-4.479-7.856-4.479-9.165z" class="b"></path></g><g class="d"><path d="M357.718 47.68h-.565v1.511h.583a1.163 1.163 0 0 0 .711-.166.663.663 0 0 0 .217-.555.745.745 0 0 0-.223-.6 1.145 1.145 0 0 0-.723-.189zm.123-.534a2.17 2.17 0 0 1 1.278.312 1.062 1.062 0 0 1 .432.921 1.212 1.212 0 0 1-.266.805 1.234 1.234 0 0 1-.75.406l.995 1.777h-.95l-.75-1.644h-.677v1.644h-.889v-4.222zm3.222 2.239a3.512 3.512 0 0 0-.245-1.311 3.136 3.136 0 0 0-.71-1.083 3.367 3.367 0 0 0-1.1-.739 3.311 3.311 0 0 0-1.294-.262 3.413 3.413 0 0 0-1.284.244 3.174 3.174 0 0 0-1.055.711 3.383 3.383 0 0 0-.756 1.116 3.265 3.265 0 0 0-.266 1.289 3.334 3.334 0 0 0 .25 1.267 3.254 3.254 0 0 0 .733 1.083 3.356 3.356 0 0 0 1.083.739 3.256 3.256 0 0 0 1.262.26 3.357 3.357 0 0 0 2.4-.983 3.273 3.273 0 0 0 .979-2.332zm-3.367-3.883a3.857 3.857 0 0 1 3.567 5.322 3.68 3.68 0 0 1-.834 1.227 4 4 0 0 1-1.272.839 3.72 3.72 0 0 1-2.916.006 4.1 4.1 0 0 1-1.261-.856 3.8 3.8 0 0 1-.817-4.171 3.886 3.886 0 0 1 .862-1.272 3.641 3.641 0 0 1 1.216-.817 3.877 3.877 0 0 1 1.456-.278z" class="b"></path></g><g><path d="M96.643 122.994c0 2.218-1.126 2.907-2.508 2.907-1.4 0-2.507-.708-2.507-2.907v-8.572c0-2.2 1.108-2.908 2.543-2.908 1.345 0 2.471.635 2.471 2.852v1.926a.278.278 0 0 1-.309.309h-.872a.278.278 0 0 1-.309-.309v-2c0-.98-.473-1.38-1.036-1.38-.691 0-1 .583-1 1.908v8.3c0 1 .473 1.38 1.037 1.38.653 0 1-.527 1-1.78v-1.4a.278.278 0 0 1 .309-.309h.872a.278.278 0 0 1 .309.309zM101.578 125.665a.278.278 0 0 1-.309-.309v-13.304a.278.278 0 0 1 .309-.31h.873a.278.278 0 0 1 .309.31v12.172h1.725a.279.279 0 0 1 .31.31v.818a.278.278 0 0 1-.31.309zM113.455 125.665a.287.287 0 0 1-.327-.291l-.345-2.979h-2.017l-.345 2.979a.286.286 0 0 1-.327.291h-.871a.271.271 0 0 1-.291-.327l1.8-13.3a.286.286 0 0 1 .326-.291h1.418a.288.288 0 0 1 .327.291l1.817 13.3a.271.271 0 0 1-.291.327zm-1.689-11.863l-.819 7.194h1.654zM123.858 122.904c0 2.017-.818 3-2.489 3-1.708 0-2.525-1.016-2.525-3v-1.582a.277.277 0 0 1 .307-.309h.873a.278.278 0 0 1 .309.309v1.8c0 1 .491 1.38 1.036 1.38.6 0 1-.453 1-1.689v-1.2c0-1.728-3.524-2.852-3.524-5.542v-1.761c0-2.237 1.308-2.8 2.562-2.8 1.234 0 2.453.562 2.453 2.816v1.962a.278.278 0 0 1-.309.309h-.873a.278.278 0 0 1-.309-.309v-2c0-1-.491-1.38-1.036-1.38-.6 0-1 .455-1 1.709v1.2c0 2.288 3.525 2.906 3.525 5.5zM133.407 122.904c0 2.017-.818 3-2.49 3-1.707 0-2.525-1.016-2.525-3v-1.582a.278.278 0 0 1 .309-.309h.872a.278.278 0 0 1 .31.309v1.8c0 1 .49 1.38 1.035 1.38.6 0 1-.453 1-1.689v-1.2c0-1.728-3.524-2.852-3.524-5.542v-1.761c0-2.237 1.308-2.8 2.562-2.8 1.236 0 2.453.562 2.453 2.816v1.962a.278.278 0 0 1-.309.309h-.872a.278.278 0 0 1-.31-.309v-2c0-1-.49-1.38-1.035-1.38-.6 0-1 .455-1 1.709v1.2c0 2.288 3.524 2.906 3.524 5.5zM138.361 125.665a.278.278 0 0 1-.309-.309v-13.304a.278.278 0 0 1 .309-.31h.873a.278.278 0 0 1 .309.31v13.3a.278.278 0 0 1-.309.309zM149.259 122.994c0 2.218-1.127 2.907-2.508 2.907-1.4 0-2.508-.708-2.508-2.907v-8.572c0-2.2 1.109-2.908 2.545-2.908 1.344 0 2.471.635 2.471 2.852v1.926a.278.278 0 0 1-.31.309h-.877a.278.278 0 0 1-.309-.309v-2c0-.98-.472-1.38-1.036-1.38-.691 0-1 .583-1 1.908v8.3c0 1 .473 1.38 1.036 1.38.654 0 1-.527 1-1.78v-1.4a.278.278 0 0 1 .309-.309h.872a.278.278 0 0 1 .31.309zM153.683 124.865a.97.97 0 0 1 .962-.963.954.954 0 0 1 .945.963.939.939 0 0 1-.945.945.954.954 0 0 1-.962-.945zM165.72 125.665a.278.278 0 0 1-.309-.309v-13.304a.278.278 0 0 1 .309-.31h.873a.278.278 0 0 1 .309.31v13.3a.278.278 0 0 1-.309.309zM173.383 125.665a.278.278 0 0 1-.31-.309v-12.154h-1.416a.278.278 0 0 1-.309-.31v-.84a.278.278 0 0 1 .309-.31h4.323a.278.278 0 0 1 .31.31v.835a.279.279 0 0 1-.31.31h-1.416v12.155a.278.278 0 0 1-.31.309zM184.169 125.665a.287.287 0 0 1-.328-.291l-.345-2.979h-2.016l-.346 2.979a.286.286 0 0 1-.327.291h-.871a.271.271 0 0 1-.291-.327l1.8-13.3a.287.287 0 0 1 .327-.291h1.417a.288.288 0 0 1 .327.291l1.817 13.3a.271.271 0 0 1-.291.327zm-1.69-11.863l-.818 7.194h1.653zM190.069 125.665a.278.278 0 0 1-.31-.309v-13.304a.278.278 0 0 1 .31-.31h.871a.278.278 0 0 1 .31.31v12.172h1.726a.278.278 0 0 1 .309.31v.818a.278.278 0 0 1-.309.309zM198.035 125.665a.278.278 0 0 1-.308-.309v-13.304a.278.278 0 0 1 .308-.31h.872a.278.278 0 0 1 .309.31v13.3a.278.278 0 0 1-.309.309zM208.172 125.665a.287.287 0 0 1-.327-.291l-.346-2.979h-2.017l-.344 2.979a.287.287 0 0 1-.327.291h-.872a.272.272 0 0 1-.291-.327l1.8-13.3a.287.287 0 0 1 .327-.291h1.42a.289.289 0 0 1 .327.291l1.816 13.3a.271.271 0 0 1-.29.327zm-1.69-11.863l-.818 7.194h1.654zM217.936 125.665a.332.332 0 0 1-.344-.273l-2.381-9.229.037 9.194a.278.278 0 0 1-.309.309h-.872a.278.278 0 0 1-.309-.309v-13.305a.278.278 0 0 1 .309-.31h1.125a.334.334 0 0 1 .346.274l2.453 9.393-.038-9.358a.278.278 0 0 1 .309-.31h.874a.277.277 0 0 1 .306.31v13.3a.277.277 0 0 1-.306.309zM224.072 124.865a.969.969 0 0 1 .962-.963.954.954 0 0 1 .945.963.939.939 0 0 1-.945.945.954.954 0 0 1-.962-.945zM237.252 125.665a.278.278 0 0 1-.309-.309v-12.154h-1.417a.279.279 0 0 1-.31-.31v-.84a.279.279 0 0 1 .31-.31h4.32a.278.278 0 0 1 .309.31v.835a.278.278 0 0 1-.309.31h-1.417v12.155a.278.278 0 0 1-.309.309zM248.674 125.665a.333.333 0 0 1-.344-.254l-1.545-5.634h-.689v5.575a.278.278 0 0 1-.309.309h-.872a.278.278 0 0 1-.309-.309v-13.3a.278.278 0 0 1 .309-.31h2.126c1.581 0 2.488.637 2.488 2.908v2.161c0 1.51-.327 2.363-1.343 2.707l1.616 5.8c.054.218-.055.344-.273.344zm-.636-11.083c0-1.016-.327-1.38-1.016-1.38h-.927v5.142h.927c.689 0 1.016-.364 1.016-1.38zM258.495 125.665a.287.287 0 0 1-.327-.291l-.346-2.979h-2.017l-.344 2.979a.287.287 0 0 1-.327.291h-.872a.27.27 0 0 1-.29-.327l1.8-13.3a.288.288 0 0 1 .327-.291h1.419a.29.29 0 0 1 .327.291l1.816 13.3a.272.272 0 0 1-.291.327zm-1.69-11.863l-.818 7.194h1.654zM264.394 125.665a.278.278 0 0 1-.309-.309v-13.304a.278.278 0 0 1 .309-.31h2.126c1.581 0 2.488.637 2.488 2.908v8.1c0 2.273-.907 2.908-2.488 2.908zm3.124-11.083c0-1.016-.327-1.38-1.015-1.38h-.928v11.027h.928c.688 0 1.015-.363 1.015-1.38zM274.035 125.665a.278.278 0 0 1-.308-.309v-13.304a.278.278 0 0 1 .308-.31h.872a.278.278 0 0 1 .309.31v13.3a.278.278 0 0 1-.309.309zM281.697 125.665a.278.278 0 0 1-.309-.309v-12.154h-1.419a.278.278 0 0 1-.309-.31v-.84a.278.278 0 0 1 .309-.31h4.325a.278.278 0 0 1 .309.31v.835a.278.278 0 0 1-.309.31h-1.417v12.155a.278.278 0 0 1-.309.309zM289.354 125.665a.278.278 0 0 1-.309-.309v-13.304a.278.278 0 0 1 .309-.31h.872a.278.278 0 0 1 .309.31v13.3a.278.278 0 0 1-.309.309zM295.239 114.422c0-2.2 1.089-2.908 2.56-2.908s2.453.727 2.453 2.908v8.574c0 2.218-1.125 2.907-2.506 2.907-1.4 0-2.508-.708-2.508-2.907zm3.523-.13c0-.98-.489-1.38-1.015-1.38-.545 0-1.019.4-1.019 1.38v8.83c0 1 .474 1.38 1.019 1.38.527 0 1.015-.382 1.015-1.38zM309.167 125.665a.333.333 0 0 1-.345-.273l-2.38-9.229.038 9.194a.278.278 0 0 1-.31.309h-.87a.278.278 0 0 1-.31-.309v-13.305a.278.278 0 0 1 .31-.31h1.124a.336.336 0 0 1 .348.274l2.452 9.393-.038-9.358a.278.278 0 0 1 .31-.31h.873a.279.279 0 0 1 .31.31v13.3a.279.279 0 0 1-.31.309zM315.319 124.865a.969.969 0 0 1 .963-.963.954.954 0 0 1 .945.963.939.939 0 0 1-.945.945.954.954 0 0 1-.963-.945z" class="c"></path></g>
						</svg>